HIERARCHY
ROOT SpineBase
{
  OFFSET 0.000000 0.000000 0.000000
  CHANNELS 6 Xposition Yposition Zposition Zrotation Xrotation Yrotation
  JOINT SpineMid
  {
    OFFSET 0.000000 31.973633 0.000000
    CHANNELS 3 Zrotation Xrotation Yrotation
    JOINT SpineShoulder
    {
      OFFSET 0.446651 23.518241 -0.586795
      CHANNELS 3 Zrotation Xrotation Yrotation
      JOINT Neck
      {
        OFFSET 0.293586 7.693771 -0.452073
        CHANNELS 3 Zrotation Xrotation Yrotation
        JOINT Head
        {
          OFFSET 1.629446 13.143088 7.260224
          CHANNELS 3 Zrotation Xrotation Yrotation
          End Site
          {
            OFFSET 0 0 0
          }
        }
      }
      JOINT ShoulderLeft
      {
        OFFSET 1.736419 -3.758689 -12.457114
        CHANNELS 3 Zrotation Xrotation Yrotation
        JOINT ElbowLeft
        {
          OFFSET 2.465488 -29.654737 -7.473235
          CHANNELS 3 Zrotation Xrotation Yrotation
          JOINT WristLeft
          {
            OFFSET 7.136789 -23.014732 -1.119203
            CHANNELS 3 Zrotation Xrotation Yrotation
            JOINT HandLeft
            {
              OFFSET 2.151395 -8.260336 -1.097244
              CHANNELS 3 Zrotation Xrotation Yrotation
              JOINT HandTipLeft
              {
                OFFSET 0.565813 -6.486451 2.132346
                CHANNELS 3 Zrotation Xrotation Yrotation
                End Site
                {
                  OFFSET 0 0 0
                }
              }
              JOINT ThumbLeft
              {
                OFFSET -2.638646 -4.247093 -0.861239
                CHANNELS 3 Zrotation Xrotation Yrotation
                End Site
                {
                  OFFSET 0 0 0
                }
              }
            }
          }
        }
      }
      JOINT ShoulderRight
      {
        OFFSET 9.692057 -4.045063 13.158832
        CHANNELS 3 Zrotation Xrotation Yrotation
        JOINT ElbowRight
        {
          OFFSET -0.696339 -25.802003 1.351671
          CHANNELS 3 Zrotation Xrotation Yrotation
          JOINT WristRight
          {
            OFFSET 0.664000 -28.331968 8.730216
            CHANNELS 3 Zrotation Xrotation Yrotation
            JOINT HandRight
            {
              OFFSET -1.655343 -5.700624 2.785066
              CHANNELS 3 Zrotation Xrotation Yrotation
              JOINT HandTipRight
              {
                OFFSET 0.442529 -0.029612 0.011791
                CHANNELS 3 Zrotation Xrotation Yrotation
                End Site
                {
                  OFFSET 0 0 0
                }
              }
              JOINT ThumbRight
              {
                OFFSET 1.924842 -2.228950 -2.405300
                CHANNELS 3 Zrotation Xrotation Yrotation
                End Site
                {
                  OFFSET 0 0 0
                }
              }
            }
          }
        }
      }
    }
  }
  JOINT HipLeft
  {
    OFFSET -1.767629 1.088896 -6.794541
    CHANNELS 3 Zrotation Xrotation Yrotation
    JOINT KneeLeft
    {
      OFFSET -5.735640 -37.788652 -0.372548
      CHANNELS 3 Zrotation Xrotation Yrotation
      JOINT AnkleLeft
      {
        OFFSET -8.141723 -38.356780 3.384600
        CHANNELS 3 Zrotation Xrotation Yrotation
        JOINT FootLeft
        {
          OFFSET 2.807332 -8.219426 -1.399221
          CHANNELS 3 Zrotation Xrotation Yrotation
          End Site
          {
            OFFSET 0 0 0
          }
        }
      }
    }
  }
  JOINT HipRight
  {
    OFFSET 2.440257 -0.164915 -0.057005
    CHANNELS 3 Zrotation Xrotation Yrotation
    JOINT KneeRight
    {
      OFFSET -6.439192 -38.119803 9.415529
      CHANNELS 3 Zrotation Xrotation Yrotation
      JOINT AnkleRight
      {
        OFFSET 14.736436 -28.938937 -8.025302
        CHANNELS 3 Zrotation Xrotation Yrotation
        JOINT FootRight
        {
          OFFSET -3.783941 -8.621239 5.146002
          CHANNELS 3 Zrotation Xrotation Yrotation
          End Site
          {
            OFFSET 0 0 0
          }
        }
      }
    }
  }
}
MOTION
Frames: 13
Frame Time: 0.033333
-19.826165 85.546688 311.521572 -0.000000 0.000000 -58.013420 -0.000000 0.000000 58.013420 -0.000000 0.000000 0.000000 -0.000000 0.000000 0.000000 0.000000 0.000000 0.000000 -0.000000 0.000000 0.000000 -0.000000 0.000000 0.000000 -0.000000 0.000000 0.000000 -0.000000 0.000000 0.000000 0.000000 0.000000 0.000000 0.000000 0.000000 0.000000 -0.000000 0.000000 0.000000 -0.000000 0.000000 0.000000 -0.000000 0.000000 0.000000 -0.000000 0.000000 0.000000 0.000000 0.000000 0.000000 0.000000 0.000000 0.000000 -0.000000 0.000000 58.013420 -0.000000 0.000000 0.000000 -0.000000 0.000000 0.000000 0.000000 0.000000 0.000000 -0.000000 0.000000 58.013420 -0.000000 0.000000 0.000000 -0.000000 0.000000 0.000000 0.000000 0.000000 0.000000
-20.820719 85.440157 311.148935 -1.539104 0.451029 -54.245381 1.265390 0.985478 54.240557 -0.000000 0.000000 0.000000 -0.000000 0.000000 0.000000 0.000000 0.000000 0.000000 -0.000000 0.000000 0.000000 1.934479 -0.289343 -0.178012 0.659734 -3.545005 -1.079338 0.374229 3.394851 2.192374 0.000000 0.000000 0.000000 0.000000 0.000000 0.000000 -0.000000 0.000000 0.000000 -0.000000 0.000000 0.000000 -0.000000 0.000000 0.000000 -0.000000 0.000000 0.000000 0.000000 0.000000 0.000000 0.000000 0.000000 0.000000 2.329778 2.383963 54.198850 -1.756586 0.045341 0.011106 -0.000000 0.000000 0.000000 0.000000 0.000000 0.000000 0.252513 -1.172032 53.736543 2.338774 0.459235 0.492990 -1.319365 -0.635406 -0.511706 0.000000 0.000000 0.000000
-21.670994 85.352688 310.825444 -2.844590 0.829866 -50.543135 1.641611 1.192928 50.520177 0.880463 -0.319943 0.030506 -0.000000 0.000000 0.000000 0.000000 0.000000 0.000000 1.259621 -0.028349 -0.319220 2.221851 -0.591739 -0.025071 1.146016 -6.914406 -1.939436 0.676654 6.825872 3.940669 0.000000 0.000000 0.000000 0.000000 0.000000 0.000000 -0.000000 0.000000 0.000000 -0.000000 0.000000 0.000000 -0.000000 0.000000 0.000000 -0.000000 0.000000 0.000000 0.000000 0.000000 0.000000 0.000000 0.000000 0.000000 4.628973 4.163325 50.398401 -3.309710 0.091160 0.021342 -0.000000 0.000000 0.000000 0.000000 0.000000 0.000000 0.315280 -2.183547 49.591546 4.316714 0.871066 0.894106 -2.446294 -1.181355 -0.952302 0.000000 0.000000 0.000000
-22.376989 85.284281 310.551099 -3.918584 1.137120 -47.155446 2.281365 1.441931 47.126702 0.317055 -0.560913 -0.016409 0.993239 0.117430 0.052884 0.000000 0.000000 0.000000 2.730338 0.007651 -0.395586 2.928258 -0.894852 -0.059079 1.258203 -9.875835 -2.582911 1.086399 10.041182 5.211704 0.000000 0.000000 0.000000 0.000000 0.000000 0.000000 0.993239 0.117430 0.052884 -0.000000 0.000000 0.000000 -0.000000 0.000000 0.000000 -0.000000 0.000000 0.000000 0.000000 0.000000 0.000000 0.000000 0.000000 0.000000 6.773438 5.403562 46.891007 -4.644243 0.137328 0.030349 -0.000000 0.000000 0.000000 0.000000 0.000000 0.000000 0.252550 -3.008573 45.832452 5.927144 1.225637 1.208523 -3.376197 -1.641254 -1.315470 0.000000 0.000000 0.000000
-22.938705 85.234937 310.325901 -4.763568 1.373653 -44.357123 2.744817 1.526388 44.325936 0.379650 -0.646296 -0.027931 1.354668 0.103028 0.074490 0.000000 0.000000 0.000000 3.467600 -0.133631 -0.476751 3.394602 -1.208047 -0.113572 0.835912 -12.217929 -3.028422 1.773554 12.815964 5.982912 0.000000 0.000000 0.000000 0.000000 0.000000 0.000000 1.354668 0.103028 0.074490 -0.000000 0.000000 0.000000 -0.000000 0.000000 0.000000 -0.000000 0.000000 0.000000 0.000000 0.000000 0.000000 0.000000 0.000000 0.000000 8.631464 6.221057 43.977214 -5.748165 0.183737 0.037765 -0.000000 0.000000 0.000000 0.000000 0.000000 0.000000 0.139187 -3.635833 42.740494 7.168064 1.515821 1.441686 -4.105924 -2.018397 -1.596238 0.000000 0.000000 0.000000
-23.356142 85.204654 310.149850 -5.381865 1.540331 -42.398864 3.002572 1.500554 42.366673 0.421440 -0.681524 -0.041943 1.731870 0.062088 0.098522 0.000000 0.000000 0.000000 4.119087 -0.345771 -0.530802 3.634588 -1.536020 -0.192362 -0.227177 -13.769983 -3.289019 2.869017 14.967570 6.243989 0.000000 0.000000 0.000000 0.000000 0.000000 0.000000 1.731870 0.062088 0.098522 -0.000000 0.000000 0.000000 -0.000000 0.000000 0.000000 -0.000000 0.000000 0.000000 0.000000 0.000000 0.000000 0.000000 0.000000 0.000000 10.087756 6.759038 41.922469 -6.612292 0.230290 0.043231 0.640794 0.617498 0.098091 0.000000 0.000000 0.000000 0.047905 -4.066376 40.573171 8.040043 1.736782 1.598536 -4.633387 -2.315646 -1.790813 0.000000 0.000000 0.000000
-23.802701 85.277873 309.964742 -5.880754 1.751319 -42.396580 2.978875 1.391816 42.364827 0.431579 -0.632384 -0.067793 2.311792 -0.130784 0.143586 0.000000 0.000000 0.000000 4.847642 -0.774618 -0.528890 3.992962 -1.857474 -0.316019 -3.713817 -14.729061 -3.371699 5.432997 16.621288 5.626224 0.000000 0.000000 0.000000 0.000000 0.000000 0.000000 2.311792 -0.130784 0.143586 -0.000000 0.000000 0.000000 -0.000000 0.000000 0.000000 -0.000000 0.000000 0.000000 0.000000 0.000000 0.000000 0.000000 0.000000 0.000000 11.529693 7.356458 41.838940 -7.577381 0.538598 0.028442 1.120906 1.016539 0.145734 0.000000 0.000000 0.000000 0.239621 -4.257023 40.456530 8.520615 1.826148 1.691745 -8.839504 -5.427804 -3.127130 0.000000 0.000000 0.000000
-23.815917 85.294910 309.928985 -5.837844 1.711371 -41.370585 2.632096 1.090057 41.332630 0.419959 -0.513489 -0.086329 2.723484 -0.266597 0.176704 0.000000 0.000000 0.000000 5.350216 -1.145453 -0.526046 3.670581 -2.435124 -0.489402 -6.240327 -13.756532 -2.978113 7.853508 16.555750 4.769776 0.000000 0.000000 0.000000 0.000000 0.000000 0.000000 2.723484 -0.266597 0.176704 -0.000000 0.000000 0.000000 -0.000000 0.000000 0.000000 -0.000000 0.000000 0.000000 0.000000 0.000000 0.000000 0.000000 0.000000 0.000000 11.560406 7.380488 40.783597 -7.697948 0.335891 0.047140 1.644826 1.113395 0.083735 0.000000 0.000000 0.000000 -1.227872 -4.749630 38.971415 13.088644 1.633038 1.181251 -6.533534 -4.770618 0.712587 0.000000 0.000000 0.000000
-23.671666 85.452149 309.796277 -5.589179 1.759340 -41.340292 2.199406 0.712555 41.297746 0.373414 -0.395278 -0.104168 3.095671 -0.434238 0.210414 0.000000 0.000000 0.000000 5.658558 -1.574786 -0.485564 2.990419 -3.158094 -0.732538 -7.910128 -10.968720 -2.003356 8.861009 14.663400 3.749547 0.000000 0.000000 0.000000 0.000000 0.000000 0.000000 3.095671 -0.434238 0.210414 -0.000000 0.000000 0.000000 -0.000000 0.000000 0.000000 -0.000000 0.000000 0.000000 0.000000 0.000000 0.000000 0.000000 0.000000 0.000000 11.260490 7.029383 40.810878 -8.306727 0.160625 0.015839 2.778966 1.195352 0.012914 0.000000 0.000000 0.000000 -0.631054 -4.879792 39.173492 13.353082 3.444551 1.291445 -4.403672 -4.754781 1.552238 0.000000 0.000000 0.000000
-23.822325 85.437906 309.825221 -5.794061 1.579261 -44.195847 1.880878 0.736176 44.136436 0.431797 -0.303509 -0.117413 3.502748 -0.477477 0.238920 0.000000 0.000000 0.000000 5.835936 -1.903502 -0.419406 2.215308 -3.635846 -0.960269 -10.305487 -8.805905 -1.022739 10.670815 13.647545 2.530345 0.000000 0.000000 0.000000 0.000000 0.000000 0.000000 3.502748 -0.477477 0.238920 -0.000000 0.000000 0.000000 -0.000000 0.000000 0.000000 -0.000000 0.000000 0.000000 0.000000 0.000000 0.000000 0.000000 0.000000 0.000000 11.247959 7.946559 43.574239 -8.633826 0.211675 0.026983 3.071509 1.163142 -0.098140 0.000000 0.000000 0.000000 1.626619 -3.454978 42.749657 7.868635 2.992393 1.346061 0.985432 5.478532 -1.932017 0.000000 0.000000 0.000000
-23.665913 85.243650 309.817481 -5.657477 1.431616 -47.600583 1.479344 0.649808 47.529979 0.451999 -0.261832 -0.125006 3.730498 -0.498943 0.254814 0.000000 0.000000 0.000000 5.868313 -2.372047 -0.386414 1.064079 -3.752077 -1.112053 -11.843195 -7.203255 -0.197800 11.762489 14.118992 1.572006 0.000000 0.000000 0.000000 0.000000 0.000000 0.000000 3.730498 -0.498943 0.254814 -0.000000 0.000000 0.000000 -0.000000 0.000000 0.000000 -0.000000 0.000000 0.000000 0.000000 0.000000 0.000000 0.000000 0.000000 0.000000 10.600179 8.300379 46.996052 -8.537010 0.340085 0.022382 3.512291 1.075646 -0.242248 0.000000 0.000000 0.000000 5.026793 -1.659652 47.248342 -3.704719 1.712395 1.694274 16.927752 21.605760 -7.670204 0.000000 0.000000 0.000000
-22.963914 84.767814 310.223882 -5.085302 0.979184 -52.689134 1.150631 0.663022 52.608463 0.490694 -0.237950 -0.106424 1.967399 -0.426520 1.005956 0.000000 0.000000 0.000000 5.356102 -2.428031 -0.426374 -0.524989 -3.870566 -1.209528 -12.420220 -6.859723 0.123996 13.120108 17.237643 1.132684 0.000000 0.000000 0.000000 0.000000 0.000000 0.000000 3.370963 -0.214909 0.212869 -0.000000 0.000000 0.000000 -0.000000 0.000000 0.000000 -0.000000 0.000000 0.000000 0.000000 0.000000 0.000000 0.000000 0.000000 0.000000 8.573354 8.227194 52.192508 -7.775080 0.361733 -0.004568 4.151478 0.861949 -0.398223 0.000000 0.000000 0.000000 7.791122 1.019287 53.344289 -17.847690 -0.559033 2.122088 40.414074 37.015902 -18.315450 0.000000 0.000000 0.000000
-21.975976 84.205197 310.801683 -4.291622 0.378170 -57.526304 0.749064 0.592117 57.442034 0.510554 -0.180305 -0.083096 0.958233 0.020180 1.235934 0.000000 0.000000 0.000000 4.576722 -2.422738 -0.445430 -2.144676 -3.794964 -1.271812 -12.760457 -8.965868 -0.561081 16.758961 24.664375 1.163472 0.000000 0.000000 0.000000 0.000000 0.000000 0.000000 2.879277 0.125180 0.161459 -0.000000 0.000000 0.000000 -0.000000 0.000000 0.000000 -0.000000 0.000000 0.000000 0.000000 0.000000 0.000000 0.000000 0.000000 0.000000 6.241174 7.342689 57.209722 -6.605935 0.507432 -0.061091 4.458471 0.566714 -0.468144 0.000000 0.000000 0.000000 10.116314 4.529566 59.124454 -33.414395 -3.475730 2.064938 68.176637 46.402269 -33.285868 0.000000 0.000000 0.000000
